<?xml version="1.0" encoding="iso-8859-1"?>
<!-- Uploaded to: SVG Repo, www.svgrepo.com, Generator: SVG Repo Mixer Tools -->
<svg fill="#000000" height="800px" width="800px" version="1.1" id="Layer_1" xmlns="http://www.w3.org/2000/svg" xmlns:xlink="http://www.w3.org/1999/xlink" 
	 viewBox="0 0 512.001 512.001" xml:space="preserve">
<g>
	<g>
		<path d="M382,330.529c-4.088-4.089-10.717-4.089-14.805,0l-0.097,0.097c-4.088,4.088-4.088,10.717,0,14.805
			c2.044,2.044,4.723,3.066,7.402,3.066c2.679,0,5.359-1.022,7.402-3.066l0.097-0.097C386.087,341.246,386.087,334.618,382,330.529z
			"/>
	</g>
</g>
<g>
	<g>
		<path d="M144.926,330.626l-0.096-0.097c-4.088-4.088-10.716-4.088-14.805,0c-4.088,4.088-4.088,10.717,0,14.806l0.097,0.097
			c2.044,2.044,4.723,3.066,7.402,3.066c2.679,0,5.359-1.022,7.402-3.066C149.014,341.344,149.014,334.715,144.926,330.626z"/>
	</g>
</g>
<g>
	<g>
		<path d="M382.001,188.827c-4.088-4.088-10.716-4.088-14.805,0l-0.097,0.097c-4.088,4.088-4.088,10.717,0,14.805
			c2.044,2.044,4.724,3.066,7.403,3.066s5.359-1.022,7.402-3.066l0.097-0.097C386.088,199.545,386.088,192.916,382.001,188.827z"/>
	</g>
</g>
<g>
	<g>
		<path d="M144.926,188.926l-0.096-0.097c-4.088-4.088-10.716-4.088-14.805,0c-4.088,4.088-4.088,10.717,0,14.806l0.097,0.097
			c2.044,2.044,4.723,3.066,7.402,3.066c2.679,0,5.359-1.022,7.402-3.066C149.014,199.643,149.014,193.015,144.926,188.926z"/>
	</g>
</g>
<g>
	<g>
		<path d="M485.965,232.954c-0.069-4.935-3.575-9.15-8.414-10.119c-1.445-0.29-25.887-4.875-55.717,7.686
			c14.832-46.121,1.025-96.276,0.238-99.052c-1.279-4.509-5.395-7.612-10.07-7.612c-0.05,0-0.103,0-0.153,0.001
			c-2.066,0.03-44.788,0.99-82.297,27.463C320.753,71.719,266.5,6.672,263.995,3.709C262.006,1.357,259.081,0,256.001,0
			c-3.081,0-6.006,1.357-7.995,3.71c-2.505,2.963-56.758,68.01-65.555,147.612c-37.51-26.473-80.232-27.432-82.297-27.463
			c-4.711-0.03-8.93,3.053-10.222,7.611c-0.787,2.775-14.595,52.93,0.238,99.051c-29.832-12.561-54.271-7.974-55.717-7.685
			c-4.84,0.967-8.345,5.184-8.415,10.119c-0.015,1.069-0.275,26.566,7.739,60.589c7.434,31.558,23.729,76.717,59.152,112.64
			c37.731,38.265,89.039,58.626,152.604,60.626v34.723c0,5.782,4.687,10.468,10.468,10.468c5.782,0,10.468-4.687,10.468-10.468
			V466.81c63.565-2,114.873-22.361,152.604-60.626c35.423-35.923,51.719-81.083,59.152-112.64
			C486.24,259.519,485.979,234.023,485.965,232.954z M404.046,391.604c-30.505,30.875-71.328,48.73-121.588,53.273l75.498-75.498
			c4.088-4.088,4.088-10.716,0-14.805c-4.088-4.088-10.716-4.088-14.805,0l-76.682,76.682v-112.09l91.488-91.488
			c4.088-4.088,4.088-10.716,0-14.805c-4.088-4.088-10.717-4.088-14.805,0l-76.682,76.682V135.123
			c0-5.782-4.687-10.468-10.468-10.468c-5.782,0-10.468,4.687-10.468,10.468V289.53l-76.658-76.658
			c-4.088-4.088-10.716-4.088-14.805,0c-4.088,4.088-4.088,10.717,0,14.806l91.463,91.463v112.091l-76.658-76.658
			c-4.088-4.088-10.716-4.088-14.805,0c-4.088,4.088-4.088,10.716,0,14.805l75.5,75.5c-50.273-4.539-91.105-22.395-121.615-53.275
			c-50.039-50.646-59.029-123.241-60.636-148.923c13.81-0.125,41.544,3.491,68.014,29.963c4.087,4.088,10.716,4.088,14.804,0
			c4.088-4.088,4.089-10.717,0-14.806c-0.017-0.016-0.035-0.035-0.051-0.05c-33.562-33.63-26.139-90.997-21.902-112.313
			c15.684,1.874,50.32,8.852,76.133,34.666c2.995,2.994,7.496,3.888,11.409,2.268c3.912-1.62,6.462-5.437,6.462-9.672
			c0-63.266,37.098-121.848,53.813-145.029c16.719,23.188,53.813,81.768,53.813,145.029c0,4.233,2.551,8.051,6.462,9.672
			c3.911,1.622,8.414,0.724,11.408-2.268c25.686-25.687,60.445-32.731,76.155-34.643c4.27,21.314,11.736,78.562-21.923,112.289
			c-0.017,0.017-0.036,0.036-0.051,0.051c-4.088,4.089-4.088,10.717,0,14.805c4.087,4.088,10.716,4.088,14.804,0
			c26.474-26.474,54.206-30.099,68.013-29.963C463.074,268.375,454.082,340.962,404.046,391.604z"/>
	</g>
</g>
</svg>