<?xml version="1.0" encoding="iso-8859-1"?>
<!-- Uploaded to: SVG Repo, www.svgrepo.com, Generator: SVG Repo Mixer Tools -->
<svg fill="#000000" height="800px" width="800px" version="1.1" id="Layer_1" xmlns="http://www.w3.org/2000/svg" xmlns:xlink="http://www.w3.org/1999/xlink" 
	 viewBox="0 0 512 512" xml:space="preserve">
<g>
	<g>
		<path d="M510.16,241.144c-0.516-0.654-12.896-16.2-33.173-32.304c-27.211-21.611-55.818-33.839-82.73-35.363
			c-12.248-0.693-22.748-9.044-26.13-20.779C353.33,101.352,328.89,44.205,259.815,9.668c-2.401-1.201-5.229-1.201-7.63,0
			c-69.077,34.538-93.516,91.685-108.312,143.032c-3.382,11.736-13.883,20.086-26.132,20.779
			c-26.912,1.524-55.518,13.752-82.729,35.363c-20.277,16.104-32.656,31.65-33.173,32.304c-2.278,2.88-2.457,6.894-0.445,9.965
			c24.004,36.638,48.772,64.754,73.612,83.565c21.696,16.429,34.293,43.057,33.698,71.227l-0.01,0.465
			c-0.405,19.082,0.055,38.472,10.279,47.555c4.194,3.726,9.521,5.259,15.392,4.434c35.212-4.942,83.096-18.718,111.253-56.279
			c0.64-0.854,1.252-1.705,1.85-2.552v95.178c0,4.711,3.818,8.53,8.53,8.53c4.712,0,8.53-3.819,8.53-8.53v-95.438
			c0.598,0.844,1.21,1.691,1.85,2.542c28.135,37.375,76,51.377,111.199,56.542c1.076,0.158,2.134,0.237,3.169,0.237
			c4.62,0,8.803-1.56,12.238-4.592c10.263-9.06,10.725-28.519,10.318-47.674l-0.009-0.417
			c-0.595-28.171,12.002-54.798,33.697-71.227c24.841-18.811,49.608-46.926,73.614-83.565
			C512.618,248.039,512.438,244.025,510.16,241.144z M426.694,321.075c-26.042,19.721-41.164,51.567-40.453,85.189l0.009,0.419
			c0.157,7.406,0.636,29.943-4.553,34.523c-0.231,0.204-0.489,0.434-1.64,0.266c-45.406-6.663-79.775-23.628-99.39-49.063
			c-13.802-17.894-15.922-34.336-16.136-36.366v-4.653c9.275-9.848,54.518-52.516,166.511-82.674
			c4.549-1.225,7.243-5.906,6.019-10.454c-1.225-4.549-5.905-7.242-10.454-6.019c-90.946,24.492-139.855,57.155-162.076,75.843
			V220.698l57.438-53.129c3.458-3.199,3.669-8.596,0.47-12.054c-3.199-3.458-8.597-3.669-12.054-0.47l-45.853,42.414V53.96
			c0-4.711-3.818-8.53-8.53-8.53s-8.53,3.819-8.53,8.53v143.5l-45.853-42.415c-3.457-3.199-8.855-2.989-12.054,0.47
			c-3.199,3.458-2.989,8.855,0.47,12.054l57.438,53.13v107.387c-22.22-18.688-71.13-51.351-162.077-75.843
			c-4.551-1.224-9.229,1.471-10.454,6.019c-1.225,4.549,1.469,9.229,6.019,10.454c111.332,29.981,157.12,72.835,166.512,82.703
			v4.657c-0.391,4.048-8.568,70.386-115.474,85.389c-1.175,0.164-1.45-0.08-1.692-0.295c-5.188-4.608-4.711-27.061-4.554-34.438
			l0.01-0.466c0.711-33.622-14.412-65.468-40.453-85.189c-22.082-16.722-44.301-41.595-66.099-73.981
			c12.402-13.82,52.272-53.909,99.498-56.584c19.473-1.102,36.175-14.399,41.56-33.087c14.168-49.17,35.637-98.913,95.735-130.54
			c60.097,31.626,81.564,81.369,95.735,130.54c5.385,18.689,22.087,31.986,41.559,33.087c47.231,2.675,87.103,42.769,99.499,56.584
			C470.994,279.484,448.777,304.353,426.694,321.075z"/>
	</g>
</g>
</svg>