<?xml version="1.0" encoding="iso-8859-1"?>
<!-- Uploaded to: SVG Repo, www.svgrepo.com, Generator: SVG Repo Mixer Tools -->
<svg fill="#000000" height="800px" width="800px" version="1.1" id="Layer_1" xmlns="http://www.w3.org/2000/svg" xmlns:xlink="http://www.w3.org/1999/xlink" 
	 viewBox="0 0 511.999 511.999" xml:space="preserve">
<g>
	<g>
		<path d="M442.902,170.863c-10.329-15.137-31.918-25.767-54.915-13.337L355.843,174.9c-3.266,1.765-5.41-0.293-6.18-1.261
			c-0.771-0.967-2.298-3.518,0.151-6.306l55.814-63.523c12.013-13.675,12.077-32.829,0.152-46.583
			c-11.83-13.646-30.599-16.363-45.775-6.683l-37.752,19.913c-4.112,2.17-8.756,2.037-12.739-0.365s-6.267-6.447-6.267-11.097
			V47.248C303.247,21.196,282.053,0,255.999,0S208.75,21.196,208.75,47.248v11.747c0,4.651-2.284,8.695-6.267,11.097
			c-3.98,2.402-8.622,2.536-12.738,0.365l-37.753-19.912c-15.175-9.68-33.945-6.962-45.775,6.683
			c-11.924,13.754-11.86,32.908,0.155,46.583l55.813,63.523c2.449,2.788,0.922,5.338,0.151,6.305
			c-0.77,0.967-2.913,3.026-6.181,1.261l-32.144-17.374c-22.999-12.433-44.587-1.799-54.915,13.337
			C58.767,186,56.743,209.979,76.704,226.86l109.225,92.367c3.475,2.939,2.023,6.504,1.495,7.527
			c-0.529,1.022-2.586,4.27-7.003,3.137l-23.762-6.109c-13.465-3.462-26.999,2.404-33.679,14.597
			c-6.68,12.192-4.339,26.757,5.825,36.241l59.87,55.864c16.229,15.143,36.828,24.251,58.735,26.148v46.775
			c0,4.745,3.845,8.591,8.591,8.591c4.746,0,8.591-3.846,8.591-8.591v-46.775c21.908-1.897,42.506-11.003,58.735-26.148
			l59.868-55.864c10.165-9.484,12.506-24.049,5.826-36.241c-6.679-12.192-20.214-18.058-33.678-14.597l-23.763,6.109
			c-4.414,1.134-6.474-2.115-7.002-3.137c-0.528-1.023-1.982-4.588,1.495-7.527l109.225-92.367
			C455.257,209.98,453.232,186,442.902,170.863z M424.2,213.741l-109.225,92.367c-8.494,7.183-10.771,18.649-5.665,28.532
			c5.105,9.883,15.776,14.661,26.546,11.892l23.763-6.109c7.068-1.814,12.035,2.018,14.333,6.212
			c2.298,4.194,2.852,10.448-2.48,15.424l-59.869,55.864c-13.032,12.161-29.479,19.605-47.012,21.448V405.75l35.85-26.632
			c3.809-2.829,4.602-8.211,1.773-12.019c-2.829-3.809-8.212-4.601-12.019-1.773l-25.604,19.019V287.81l35.85-26.632
			c3.809-2.829,4.602-8.211,1.773-12.019c-2.829-3.809-8.212-4.601-12.019-1.773l-25.604,19.021V169.26l35.85-26.632
			c3.809-2.829,4.602-8.211,1.773-12.019c-2.829-3.809-8.212-4.602-12.019-1.773l-25.604,19.019V80.752
			c0-4.745-3.845-8.591-8.591-8.591c-4.746,0-8.591,3.846-8.591,8.591v67.104l-25.605-19.02c-3.809-2.829-9.19-2.036-12.019,1.773
			c-2.829,3.809-2.035,9.19,1.773,12.019l35.851,26.632v97.146l-25.605-19.021c-3.809-2.83-9.19-2.035-12.019,1.773
			c-2.829,3.809-2.036,9.19,1.773,12.019l35.851,26.632v96.534l-25.605-19.021c-3.809-2.829-9.19-2.035-12.019,1.773
			c-2.829,3.809-2.036,9.19,1.773,12.019l35.851,26.632v33.622c-17.534-1.843-33.98-9.286-47.012-21.448l-59.871-55.864
			c-5.331-4.976-4.777-11.229-2.479-15.423c1.896-3.46,5.61-6.675,10.819-6.675c1.105,0,2.278,0.144,3.514,0.463l23.762,6.109
			c10.766,2.769,21.442-2.009,26.547-11.892c5.105-9.883,2.828-21.349-5.665-28.531L87.798,213.742
			c-12.711-10.749-10.375-24.6-4.51-33.195c5.864-8.594,17.911-15.82,32.552-7.906l32.144,17.374
			c9.578,5.177,21.006,2.846,27.79-5.67c6.783-8.514,6.503-20.174-0.684-28.352L119.277,92.47
			c-7.756-8.827-4.89-18.437-0.079-23.986s13.92-9.747,23.755-3.322c0.223,0.147,0.454,0.282,0.691,0.407l38.086,20.087
			c9.426,4.971,20.5,4.654,29.628-0.85c9.126-5.504,14.575-15.153,14.575-25.811V47.248c0-16.578,13.489-30.066,30.067-30.066
			c16.578,0,30.066,13.488,30.066,30.066v11.747c0,10.657,5.448,20.306,14.575,25.81c9.126,5.505,20.203,5.822,29.629,0.85
			l38.084-20.087c0.236-0.125,0.466-0.26,0.691-0.407c9.838-6.425,18.944-2.226,23.755,3.322c4.81,5.549,7.676,15.159-0.078,23.986
			l-55.814,63.523c-7.184,8.179-7.466,19.837-0.682,28.353c6.783,8.515,18.212,10.845,27.788,5.669l32.144-17.374
			c14.645-7.916,26.688-0.688,32.553,7.905C434.574,189.141,436.911,202.991,424.2,213.741z"/>
	</g>
</g>
</svg>